HIERARCHY
ROOT HipCenter
{
    OFFSET 0.0 0.0 -0.0
    CHANNELS 6 Xposition Yposition Zposition Zrotation Xrotation Yrotation
    JOINT Spine
    {
        OFFSET 0.0 0.12153702974319458 0.0
        CHANNELS 3 Zrotation Xrotation Yrotation
        JOINT ShoulderCenter
        {
            OFFSET 0.0 0.33265697956085205 0.0
            CHANNELS 3 Zrotation Xrotation Yrotation
            JOINT LeftShoulder
            {
                OFFSET 0.22372221946716309 0.0 0.0
                CHANNELS 3 Zrotation Xrotation Yrotation
                JOINT LeftElbow
                {
                    OFFSET 0.304353266954422 0.0 0.0
                    CHANNELS 3 Zrotation Xrotation Yrotation
                    JOINT LeftWrist
                    {
                        OFFSET 0.31162285804748535 0.0 0.0
                        CHANNELS 3 Zrotation Xrotation Yrotation
                        JOINT LeftHand
                        {
                            OFFSET 0.033340685069561005 0.0 0.0
                            CHANNELS 3 Zrotation Xrotation Yrotation
                            End Site
                            {
                                OFFSET 0.013336274772882462 0.0 0.0
                            }
                        }
                    }
                }
            }
            JOINT RightShoulder
            {
                OFFSET -0.22372221946716309 0.0 0.0
                CHANNELS 3 Zrotation Xrotation Yrotation
                JOINT RightElbow
                {
                    OFFSET -0.304353266954422 0.0 0.0
                    CHANNELS 3 Zrotation Xrotation Yrotation
                    JOINT RightWrist
                    {
                        OFFSET -0.31162285804748535 0.0 0.0
                        CHANNELS 3 Zrotation Xrotation Yrotation
                        JOINT RightHand
                        {
                            OFFSET -0.033340685069561005 0.0 0.0
                            CHANNELS 3 Zrotation Xrotation Yrotation
                            End Site
                            {
                                OFFSET -0.013336274772882462 0.0 0.0
                            }
                        }
                    }
                }
            }
            End Site
            {
                OFFSET 0.0 0.13306276500225067 0.0
            }
        }
    }
    JOINT LeftHip
    {
        OFFSET 0.13712283968925476 0.0 0.0
        CHANNELS 3 Zrotation Xrotation Yrotation
        JOINT LeftKnee
        {
            OFFSET 0.0 -0.4269547462463379 0.0
            CHANNELS 3 Zrotation Xrotation Yrotation
            JOINT LeftAnkle
            {
                OFFSET 0.0 -0.43501633405685425 0.0
                CHANNELS 3 Zrotation Xrotation Yrotation
                JOINT LeftFoot
                {
                    OFFSET 0.0 -0.13799813389778137 0.0
                    CHANNELS 3 Zrotation Xrotation Yrotation
                    End Site
                    {
                        OFFSET 0.0 0.0 0.05519925802946091
                    }
                }
            }
        }
    }
    JOINT RightHip
    {
        OFFSET -0.13712283968925476 0.0 0.0
        CHANNELS 3 Zrotation Xrotation Yrotation
        JOINT RightKnee
        {
            OFFSET 0.0 -0.4269547462463379 0.0
            CHANNELS 3 Zrotation Xrotation Yrotation
            JOINT RightAnkle
            {
                OFFSET 0.0 -0.43501633405685425 0.0
                CHANNELS 3 Zrotation Xrotation Yrotation
                JOINT RightFoot
                {
                    OFFSET 0.0 -0.13799813389778137 0.0
                    CHANNELS 3 Zrotation Xrotation Yrotation
                    End Site
                    {
                        OFFSET 0.0 0.0 0.05519925802946091
                    }
                }
            }
        }
    }
}
MOTION
Frames: 8
Frame Time: 0.03333333333333333
0.37400001287460327 -0.3190000057220459 0.9710000157356262 59.23728344081016 36.37299047459421 -42.15289706679737 5.301957720403123 8.146714488758695 -1.6583918957013546 3.987852616405503e-06 1.834248765367904e-07 5.902380588275058 117.39690548807144 -12.245072974096725 -134.87816856932736 -1.7988883972692821e-06 -2.3589086392563093e-06 92.977512478806 1.2327708525451057e-06 -47.683881973491076 26.937293691855473 3.1805546814635168e-15 6.3611093629270335e-15 3.1805546814635168e-15 -112.07104844621782 29.07528244461384 102.43670441650886 -1.731989164943989e-06 3.364360051382433e-06 -29.922605529311266 4.937166471939865e-07 -59.62429716457372 -41.62402249709303 -1.5902773407317588e-15 2.2069531490250793e-32 -1.5902773407317588e-15 152.51710665918927 -56.45442988890637 -142.0062311487679 85.9970582772342 19.598878589357913 -152.3528646135032 82.93346652222701 -34.22198787017856 151.0153310434881 3.1805546814635164e-15 -4.4139062980501586e-32 -1.5902773407317582e-15 -164.51744190223928 -46.85487747049622 135.328398467292 -122.07912836913582 31.463765550836655 164.97558071379495 -110.07135658201173 -9.241110851190948 -170.23899157978218 9.14409470920761e-15 -1.5902773407317582e-15 2.3854160110976376e-15
0.35899999737739563 -0.3190000057220459 1.0640000104904175 67.19545806611838 38.15505720871846 -48.91779307428586 4.645876748465804 7.832246543643817 -1.3473269820340874 2.7118633272159146e-07 8.598471272478548e-07 5.480992826883633 119.99682062414372 -12.05303260462895 -126.73727044740437 1.8483718229875324e-06 4.730591248348674e-06 91.16923743930782 2.11303187655814e-06 -43.61006113949005 26.944769535833167 0.0 0.0 -3.1805546814635168e-15 -109.81390306345212 28.14718684208326 94.4959238652975 2.5285246844954204e-06 -5.186931684804814e-07 -26.31830885460805 -2.3005223614950217e-06 -54.53172460368151 -39.21835898173856 -7.58640144977371e-33 -1.9878466759146977e-16 -4.373262687012335e-15 156.7116309234211 -58.59325665858791 -141.92550324466822 65.63759204169381 10.687885582472013 -139.6360455738237 73.68498597263158 -38.37895632096083 158.37284153532067 0.0 0.0 0.0 -160.62089055533264 -41.884255769602994 134.73416349074952 -126.09759798841908 26.699314317891094 168.08109009392368 -110.88948263132612 -7.049418231183004 -172.55805934820154 -3.1805546814635164e-15 1.590277340731758e-15 5.168401357378214e-15
0.34599998593330383 -0.3230000138282776 1.1679999828338623 75.10652743354478 36.8884907988464 -57.02835893666999 3.77156150371477 8.286769464014153 -1.0148709482891183 -1.901791079231354e-07 -1.9591677599671073e-06 5.208904936045712 121.30798030624817 -11.528482020143372 -117.58449708394235 -1.3803380482910004e-06 -5.4826431602661036e-06 88.61258537137735 -2.38878988946624e-06 -36.43058275466955 27.724172482101082 -1.590277340731758e-15 0.0 0.0 -104.40668087513686 23.310652580974562 85.95484040332018 1.0375455191045858e-06 4.639187077471069e-06 -22.293867686710136 -3.2214059660751793e-06 -51.123900204427784 -39.30365048526131 1.5902773407317584e-15 -3.975693351829397e-16 -5.565970692561154e-15 152.04632649207804 -63.21267943665812 -148.7029866272113 60.1413146818667 3.1725479119380253 -164.70195748930277 80.81877103837041 -15.025443221466256 174.3034618524973 -3.1805546814635168e-15 -1.987846675914699e-16 3.1805546814635168e-15 -156.22039794790123 -37.08651355577494 133.87397399589216 -129.76339710533122 22.045923150862397 170.36364277300768 -108.86898869820803 -5.000008450036433 -174.33977544517492 2.5842006786891076e-15 3.1380115087700345e-32 1.3914926731402886e-15
0.33399999141693115 -0.32899999618530273 1.2730000019073486 83.65980269591053 35.09749935853712 -67.10128104845049 4.403461242018133 6.887412391695642 -0.7189226600719566 4.280509898194353e-06 -4.2534211441561605e-07 6.0965691628704235 122.28864576014983 -9.779464216815922 -109.00815669152635 4.9673399712107224e-06 5.56434773864741e-06 87.07585073561242 -3.6652098251889998e-06 -31.568296590786773 28.820513263371662 -7.951386703658792e-16 0.0 0.0 -107.24110030338875 16.555424104115104 85.41592321061466 2.42702747787481e-06 4.970059087300437e-06 -24.140558308840333 -2.516266698551235e-06 -52.16883094792718 -57.308854622734636 0.0 0.0 0.0 146.61845940182053 -60.67293291558066 -151.482684148552 70.29427743319907 5.389132515437644 -168.42762416102963 91.59601234851678 -6.499117198119691 177.17038848974823 0.0 0.0 1.5902773407317584e-15 -155.1430493353197 -33.64033152815405 132.4189920190977 -131.87192990525926 19.303624865271775 171.7570900615061 -106.61562683907583 -3.775320298824079 -175.33089692228376 1.5902773407317584e-15 1.5902773407317584e-15 -3.975693351829396e-15
0.3089999854564667 -0.33399999141693115 1.3730000257492065 88.2642963274632 35.25059129450111 -72.46401398300252 9.783210204221003 7.82912903117488 -1.3135447277116046 -6.814365714174129e-06 2.6593436779538676e-06 5.782083210255949 123.42981478972311 -5.5106045999263795 -99.84106348697341 2.809001298359174e-06 -2.5527217591334276e-06 86.88420957315476 -3.0330935964573306e-07 -29.12137192600707 29.745401780788843 3.975693351829395e-16 -6.3611093629270335e-15 -1.5902773407317584e-15 -113.12822744725072 15.327168547403708 90.96575755017666 -2.16624727267504e-06 4.450692328600636e-06 -37.53702918124207 -2.620196929543227e-08 -49.91981542802888 -66.87668767148506 9.93923337957349e-17 3.1060104311167164e-18 7.454425034680117e-16 147.72856820579736 -59.4787419806031 -150.80561218279456 77.98336478785943 8.322736898161118 -165.62875982760482 99.08851913727827 -9.481356732258025 176.30137997402082 0.0 0.0 0.0 -151.69380984465332 -35.09256549876004 134.1715330233893 -131.22000860086305 18.244597108061793 171.7576608752961 -105.87757350776826 0.10700394577028133 179.86963980542583 -2.7829853462805764e-15 3.180554681463516e-15 -7.951386703658789e-16
0.27399998903274536 -0.3370000123977661 1.4730000495910645 100.55180323816738 30.861002961293895 -81.41180704172086 8.38294894757641 2.6243811509196644 -0.5977843478480345 -4.2243183685089546e-07 2.011684968172795e-06 -2.531088847638491 127.05143248545923 8.548276571363058 -96.99793109678242 -4.256853405969648e-06 -5.2388181551007215e-08 87.73680275675217 -8.153788121846673e-07 -26.61802905642446 32.44935128828533 2.484808344893373e-17 0.0 0.0 -118.99265229395097 8.498598692179343 95.45753063244271 4.384701751314405e-06 -2.325472408129034e-06 -51.72629230723857 -7.386556962188011e-06 -47.38722571577412 -64.18217436149298 -7.951386703658792e-16 6.3611093629270335e-15 1.9878466759146985e-16 149.38770570296734 -56.72667458583879 -145.52196724644273 83.06929881531448 9.446430490677818 -165.58024495990983 103.7342808408231 -12.193236082190797 175.6007630842428 3.180554681463516e-15 9.939233379573487e-17 -2.758691436281349e-33 -155.5773278191153 -33.68191525801781 133.30643480714852 -128.7308074787365 17.30062154683726 171.90109038552805 -105.58410811467634 2.811005504093083 176.64582836972664 -1.5902773407317584e-15 -1.1034765745125397e-32 7.951386703658792e-16
0.23499999940395355 -0.34299999475479126 1.5750000476837158 105.43965500158531 26.368765487307474 -87.86290301975787 10.435955117785074 3.7590155706565067 -0.9921144499680553 3.8871473965898743e-07 1.6921097748426268e-06 -2.2923726318202307 129.13541121374567 19.31885546528237 -93.81506383977346 -7.285544559307712e-07 -7.551323340592718e-07 88.68319744468275 1.8142568755886704e-06 -25.46913688430913 31.894995808507794 -1.5902773407317584e-15 0.0 0.0 -123.24718762678614 7.468114783293136 99.86757049062304 -9.405036614412269e-07 -4.943276250248087e-06 -61.838379470392354 -1.5119488085981782e-06 -47.42255033074956 -64.64272275173542 -7.951386703658792e-16 -2.484808344893373e-17 7.951386703658792e-16 148.99142522027924 -59.686483392712695 -147.35830577391997 87.29843683944291 11.337395381447575 -164.8785697749751 105.33886360948593 -13.503531884762818 174.55482921113628 1.3793457181406746e-33 1.9878466759146985e-16 -7.951386703658794e-16 -158.33002600296447 -38.76530179047567 134.47334182487648 -125.9053955962165 18.230099459480435 170.17021883809764 -103.68433317700628 -2.4169148146452626 -177.2308181967429 2.385416011097637e-15 -3.1805546814635164e-15 7.951386703658792e-16
0.19099999964237213 -0.35499998927116394 1.6829999685287476 109.85521888640135 19.649725989688523 -94.78384755131502 10.452417000556334 3.9323008653251996 -0.9549968024091662 1.8689425415796302e-07 8.944381182717035e-08 0.33077178270392193 129.44522456143946 23.829935439789235 -94.28850075774793 -5.2967464014464055e-06 1.5360753034139296e-06 92.50707033605555 -2.2930638020133246e-06 -23.89341810443327 30.07308932622191 8.827812596100317e-32 -6.3611093629270335e-15 1.5902773407317584e-15 -125.09047923231458 6.226066822003996 106.30007919401703 -3.1352876847196647e-06 1.5089738083925529e-07 -70.01331515527053 3.619142669617385e-06 -41.814187698140934 -64.95936344516545 -7.951386703658792e-16 -6.385957446375967e-15 1.9878466759146975e-16 149.2688886548896 -65.04828218634007 -150.59292030703864 90.06444415142484 16.06217500575819 -161.59775340801122 104.87566299442821 -14.032463774647624 172.8088746469589 0.0 0.0 -1.5902773407317582e-15 -160.28205720923128 -44.57247798642718 135.35907287674434 -121.7819920666994 21.60763465705452 166.56413629375018 -102.43842283156594 -5.671028238348274 -173.91648461545464 0.0 0.0 1.1927080055488188e-15
